<?xml version="1.0" standalone="no"?>
<!DOCTYPE svg PUBLIC "-//W3C//DTD SVG 20010904//EN"
 "http://www.w3.org/TR/2001/REC-SVG-20010904/DTD/svg10.dtd">
<svg version="1.0" xmlns="http://www.w3.org/2000/svg"
 width="500.000000pt" height="500.000000pt" viewBox="0 0 500.000000 500.000000"
 preserveAspectRatio="xMidYMid meet">

<g transform="translate(0.000000,500.000000) scale(0.100000,-0.100000)"
fill="#000000" stroke="none">
<path d="M2020 3208 c0 -23 28 -87 51 -119 10 -13 7 -23 -14 -51 -113 -147
-48 -361 124 -412 61 -19 88 -19 149 -2 l45 12 63 -60 62 -60 63 61 62 62 40
-14 c120 -42 262 24 315 147 17 40 21 66 18 117 -3 63 -18 99 -69 171 -9 12
-5 24 15 54 23 35 44 101 34 111 -2 2 -27 -7 -55 -20 -110 -53 -210 -70 -423
-69 -172 0 -206 2 -284 23 -74 19 -131 40 -188 69 -5 2 -8 -7 -8 -20z m362
-183 c48 -32 78 -90 78 -152 0 -60 -24 -108 -73 -147 -35 -28 -46 -31 -107
-31 -61 0 -72 3 -107 31 -49 39 -73 87 -73 147 0 147 159 233 282 152z m405
20 c48 -20 71 -41 94 -87 26 -51 24 -123 -4 -173 -106 -187 -385 -70 -332 138
27 106 142 164 242 122z"/>
<path d="M2222 2918 c-20 -20 -14 -75 10 -98 47 -44 118 -11 118 54 0 43 -21
63 -38 35 -16 -25 -47 -24 -65 1 -10 15 -16 17 -25 8z"/>
<path d="M2657 2910 c-18 -42 -6 -83 29 -99 35 -16 47 -14 78 10 34 27 36 78
4 105 -13 10 -20 15 -16 10 4 -5 3 -17 -3 -28 -14 -26 -50 -20 -66 12 l-12 24
-14 -34z"/>
<path d="M2027 2623 c-4 -3 -7 -46 -7 -95 0 -224 83 -427 239 -584 80 -80 210
-174 241 -174 30 0 170 100 241 172 156 157 239 361 239 589 0 66 -4 91 -14
95 -7 3 -42 -10 -77 -28 -60 -31 -71 -33 -163 -33 l-98 0 -64 -65 -65 -65 -64
67 -65 68 -72 -6 c-84 -7 -145 6 -200 42 -38 24 -59 30 -71 17z"/>
</g>
</svg>
