<svg width="61" height="60" viewBox="0 0 61 60" fill="none" xmlns="http://www.w3.org/2000/svg">
<rect x="0.5" width="60" height="60" rx="8" fill="#D9F3E1"/>
<path d="M41.5 9.75H11.5C10.2574 9.75 9.25 10.7574 9.25 12V35.25C9.25 36.4926 10.2574 37.5 11.5 37.5H41.5C42.7426 37.5 43.75 36.4926 43.75 35.25V12C43.75 10.7574 42.7426 9.75 41.5 9.75Z" fill="#00CE3F"/>
<path d="M41.5 14.25H11.5C10.2574 14.25 9.25 15.2574 9.25 16.5V35.25C9.25 36.4926 10.2574 37.5 11.5 37.5H41.5C42.7426 37.5 43.75 36.4926 43.75 35.25V16.5C43.75 15.2574 42.7426 14.25 41.5 14.25Z" fill="white"/>
<path d="M50.5 21.75H35.5C34.2574 21.75 33.25 22.7574 33.25 24V48.75C33.25 49.9926 34.2574 51 35.5 51H50.5C51.7426 51 52.75 49.9926 52.75 48.75V24C52.75 22.7574 51.7426 21.75 50.5 21.75Z" fill="white"/>
<path d="M35.5 21.75H50.5C51.0967 21.75 51.669 21.9871 52.091 22.409C52.5129 22.831 52.75 23.4033 52.75 24V28.5H33.25V24C33.25 23.4033 33.4871 22.831 33.909 22.409C34.331 21.9871 34.9033 21.75 35.5 21.75Z" fill="#00CE3F"/>
<path d="M45.2507 33H36.2507C36.0537 32.9971 35.8657 32.9168 35.7275 32.7764C35.5892 32.6361 35.5117 32.447 35.5117 32.25C35.5117 32.053 35.5892 31.8639 35.7275 31.7235C35.8658 31.5832 36.0537 31.5029 36.2507 31.5H45.2507C45.4477 31.5029 45.6356 31.5832 45.7739 31.7236C45.9121 31.8639 45.9896 32.053 45.9896 32.25C45.9896 32.447 45.9121 32.6361 45.7739 32.7764C45.6356 32.9168 45.4477 32.9971 45.2507 33Z" fill="#00CE3F"/>
<path d="M45.2507 36H36.2507C36.0537 35.9971 35.8657 35.9168 35.7275 35.7764C35.5892 35.6361 35.5117 35.447 35.5117 35.25C35.5117 35.053 35.5892 34.8639 35.7275 34.7235C35.8658 34.5832 36.0537 34.5029 36.2507 34.5H45.2507C45.4477 34.5029 45.6356 34.5832 45.7739 34.7236C45.9121 34.8639 45.9896 35.053 45.9896 35.25C45.9896 35.447 45.9121 35.6361 45.7739 35.7764C45.6356 35.9168 45.4477 35.9971 45.2507 36Z" fill="#00CE3F"/>
<path d="M49.7507 39H36.2507C36.0537 38.9971 35.8657 38.9168 35.7275 38.7764C35.5892 38.6361 35.5117 38.447 35.5117 38.25C35.5117 38.053 35.5892 37.8639 35.7275 37.7235C35.8658 37.5832 36.0537 37.5029 36.2507 37.5H49.7507C49.9477 37.5029 50.1356 37.5832 50.2739 37.7236C50.4121 37.8639 50.4896 38.053 50.4896 38.25C50.4896 38.447 50.4121 38.6361 50.2739 38.7764C50.1356 38.9168 49.9477 38.9971 49.7507 39Z" fill="#00CE3F"/>
<path d="M47.5 48C47.4015 48 47.304 47.9806 47.213 47.943C47.122 47.9053 47.0393 47.85 46.9696 47.7804C46.9 47.7107 46.8447 47.628 46.807 47.537C46.7694 47.446 46.75 47.3485 46.75 47.25V43.5C46.75 43.3011 46.829 43.1103 46.9697 42.9697C47.1103 42.829 47.3011 42.75 47.5 42.75C47.6989 42.75 47.8897 42.829 48.0303 42.9697C48.171 43.1103 48.25 43.3011 48.25 43.5V47.25C48.25 47.3485 48.2306 47.446 48.193 47.537C48.1553 47.628 48.1 47.7107 48.0304 47.7804C47.9607 47.85 47.878 47.9053 47.787 47.943C47.696 47.9806 47.5985 48 47.5 48Z" fill="#00CE3F"/>
<path d="M47.5008 48.75C47.3536 48.7477 47.2102 48.7023 47.0884 48.6195C46.9666 48.5367 46.8716 48.4201 46.8153 48.284C46.7589 48.148 46.7436 47.9984 46.7712 47.8537C46.7988 47.709 46.8681 47.5756 46.9706 47.4698L49.2206 45.2198C49.3622 45.0837 49.5514 45.0086 49.7478 45.0105C49.9441 45.0125 50.1319 45.0914 50.2707 45.2302C50.4096 45.3691 50.4884 45.5568 50.4904 45.7532C50.4923 45.9495 50.4172 46.1388 50.2811 46.2804L48.0311 48.5304C47.9616 48.6001 47.8789 48.6554 47.7879 48.6931C47.6969 48.7308 47.5993 48.7502 47.5008 48.75Z" fill="#00CE3F"/>
<path d="M47.501 48.75C47.4025 48.7501 47.3049 48.7308 47.2139 48.693C47.1229 48.6553 47.0403 48.6 46.9707 48.5303L44.7207 46.2802C44.5822 46.1392 44.505 45.9491 44.5059 45.7514C44.5068 45.5537 44.5857 45.3643 44.7255 45.2245C44.8653 45.0847 45.0547 45.0058 45.2524 45.0049C45.4501 45.004 45.6402 45.0812 45.7812 45.2197L48.0312 47.4697C48.1337 47.5755 48.203 47.709 48.2306 47.8537C48.2582 47.9983 48.2429 48.1479 48.1865 48.284C48.1302 48.4201 48.0353 48.5367 47.9134 48.6195C47.7916 48.7023 47.6483 48.7477 47.501 48.75Z" fill="#00CE3F"/>
<path d="M25.7507 18.75H12.2507C12.0537 18.7471 11.8658 18.6668 11.7275 18.5264C11.5892 18.3861 11.5117 18.197 11.5117 18C11.5117 17.803 11.5892 17.6139 11.7275 17.4736C11.8658 17.3332 12.0537 17.2529 12.2507 17.25H25.7507C25.9477 17.2529 26.1356 17.3332 26.2739 17.4736C26.4121 17.6139 26.4896 17.803 26.4896 18C26.4896 18.197 26.4121 18.3861 26.2739 18.5264C26.1356 18.6668 25.9477 18.7471 25.7507 18.75Z" fill="#00CE3F"/>
<path d="M25.7507 21.75H12.2507C12.0537 21.7471 11.8658 21.6668 11.7275 21.5264C11.5892 21.3861 11.5117 21.197 11.5117 21C11.5117 20.803 11.5892 20.6139 11.7275 20.4736C11.8658 20.3332 12.0537 20.2529 12.2507 20.25H25.7507C25.9477 20.2529 26.1356 20.3332 26.2739 20.4736C26.4121 20.6139 26.4896 20.803 26.4896 21C26.4896 21.197 26.4121 21.3861 26.2739 21.5264C26.1356 21.6668 25.9477 21.7471 25.7507 21.75Z" fill="#00CE3F"/>
<path d="M30.2507 24.75H12.2507C12.0537 24.7471 11.8658 24.6668 11.7275 24.5264C11.5892 24.3861 11.5117 24.197 11.5117 24C11.5117 23.803 11.5892 23.6139 11.7275 23.4736C11.8658 23.3332 12.0537 23.2529 12.2507 23.25H30.2507C30.4477 23.2529 30.6356 23.3332 30.7739 23.4736C30.9121 23.6139 30.9896 23.803 30.9896 24C30.9896 24.197 30.9121 24.3861 30.7739 24.5264C30.6356 24.6668 30.4477 24.7471 30.2507 24.75Z" fill="#00CE3F"/>
<path d="M36.25 12.75C36.6642 12.75 37 12.4142 37 12C37 11.5858 36.6642 11.25 36.25 11.25C35.8358 11.25 35.5 11.5858 35.5 12C35.5 12.4142 35.8358 12.75 36.25 12.75Z" fill="white"/>
<path d="M38.5 12.75C38.9142 12.75 39.25 12.4142 39.25 12C39.25 11.5858 38.9142 11.25 38.5 11.25C38.0858 11.25 37.75 11.5858 37.75 12C37.75 12.4142 38.0858 12.75 38.5 12.75Z" fill="white"/>
<path d="M40.75 12.75C41.1642 12.75 41.5 12.4142 41.5 12C41.5 11.5858 41.1642 11.25 40.75 11.25C40.3358 11.25 40 11.5858 40 12C40 12.4142 40.3358 12.75 40.75 12.75Z" fill="white"/>
<path d="M19.75 26.25H19C18.5858 26.25 18.25 26.5858 18.25 27V27.75C18.25 28.1642 18.5858 28.5 19 28.5H19.75C20.1642 28.5 20.5 28.1642 20.5 27.75V27C20.5 26.5858 20.1642 26.25 19.75 26.25Z" fill="#00CE3F"/>
<path d="M37 43.5H36.25C35.8358 43.5 35.5 43.8358 35.5 44.25V45C35.5 45.4142 35.8358 45.75 36.25 45.75H37C37.4142 45.75 37.75 45.4142 37.75 45V44.25C37.75 43.8358 37.4142 43.5 37 43.5Z" fill="#00CE3F"/>
<path d="M31.6914 37.2251C31.6425 37.0821 31.5489 36.9586 31.4244 36.873C31.2998 36.7874 31.151 36.7443 31 36.75H11.5C11.1023 36.7495 10.721 36.5914 10.4398 36.3102C10.1586 36.029 10.0005 35.6477 10 35.25V16.5C10.0005 16.1023 10.1586 15.721 10.4398 15.4398C10.721 15.1586 11.1023 15.0005 11.5 15H41.5C41.8977 15.0005 42.279 15.1586 42.5602 15.4398C42.8414 15.721 42.9995 16.1023 43 16.5C43.036 16.6081 42.93 19.8373 43.0643 19.7999C43.1249 19.9305 43.2215 20.041 43.3427 20.1185C43.464 20.196 43.6048 20.2373 43.7487 20.2375C43.8926 20.2377 44.0336 20.1968 44.155 20.1197C44.2765 20.0425 44.3734 19.9323 44.4344 19.8019C44.4771 19.707 44.4995 19.6041 44.5 19.5V12C44.4992 11.2046 44.1828 10.442 43.6204 9.87962C43.058 9.31719 42.2954 9.00085 41.5 9H11.5C10.7046 9.00085 9.94204 9.31719 9.37962 9.87962C8.81719 10.442 8.50085 11.2046 8.5 12V35.25C8.50085 36.0454 8.81719 36.808 9.37962 37.3704C9.94204 37.9328 10.7046 38.2492 11.5 38.25H31C31.1217 38.2489 31.2413 38.2183 31.3485 38.1607C31.4557 38.1031 31.5472 38.0203 31.6153 37.9194C31.6833 37.8185 31.7258 37.7026 31.7391 37.5816C31.7523 37.4607 31.736 37.3383 31.6914 37.2251ZM11.5 10.5H41.5C41.8977 10.5005 42.279 10.6586 42.5602 10.9398C42.8414 11.221 42.9995 11.6023 43 12V13.9173C42.5461 13.6471 42.0282 13.503 41.5 13.5H11.5C10.9718 13.503 10.4539 13.6471 10 13.9173V12C10.0005 11.6023 10.1586 11.221 10.4398 10.9398C10.721 10.6586 11.1023 10.5005 11.5 10.5Z" fill="#333333"/>
<path d="M50.5 21H35.5C34.7046 21.0008 33.942 21.3172 33.3796 21.8796C32.8172 22.442 32.5008 23.2046 32.5 24V48.75C32.5008 49.5454 32.8172 50.308 33.3796 50.8704C33.942 51.4328 34.7046 51.7492 35.5 51.75H50.5C51.2954 51.7492 52.058 51.4328 52.6204 50.8704C53.1828 50.308 53.4992 49.5454 53.5 48.75V24C53.4992 23.2046 53.1828 22.442 52.6204 21.8796C52.058 21.3172 51.2954 21.0008 50.5 21ZM35.5 22.5H50.5C50.8977 22.5005 51.279 22.6586 51.5602 22.9398C51.8414 23.221 51.9995 23.6023 52 24V27.75H34V24C34.0005 23.6023 34.1586 23.221 34.4398 22.9398C34.721 22.6586 35.1023 22.5005 35.5 22.5ZM50.5 50.25H35.5C35.1023 50.2495 34.721 50.0914 34.4398 49.8102C34.1586 49.529 34.0005 49.1477 34 48.75V29.25H52V48.75C51.9995 49.1477 51.8414 49.529 51.5602 49.8102C51.279 50.0914 50.8977 50.2495 50.5 50.25Z" fill="#333333"/>
<path d="M16 26.25H12.25C11.8358 26.25 11.5 26.5858 11.5 27V27.75C11.5 28.1642 11.8358 28.5 12.25 28.5H16C16.4142 28.5 16.75 28.1642 16.75 27.75V27C16.75 26.5858 16.4142 26.25 16 26.25Z" fill="#333333"/>
<path d="M40 40.5H36.25C35.8358 40.5 35.5 40.8358 35.5 41.25V42C35.5 42.4142 35.8358 42.75 36.25 42.75H40C40.4142 42.75 40.75 42.4142 40.75 42V41.25C40.75 40.8358 40.4142 40.5 40 40.5Z" fill="#333333"/>
</svg>
