<svg width="61" height="60" viewBox="0 0 61 60" fill="none" xmlns="http://www.w3.org/2000/svg">
<rect x="0.5" width="60" height="60" rx="8" fill="#D9F3E1"/>
<path d="M36.75 39.25H24.75C24.3522 39.25 23.9706 39.092 23.6893 38.8107C23.408 38.5294 23.25 38.1478 23.25 37.75V24.25C23.25 23.8522 23.408 23.4706 23.6893 23.1893C23.9706 22.908 24.3522 22.75 24.75 22.75H39C39.3978 22.75 39.7794 22.908 40.0607 23.1893C40.342 23.4706 40.5 23.8522 40.5 24.25V35.5L36.75 39.25Z" fill="#FBFFFD"/>
<path d="M36.75 39.25V35.5H40.5L36.75 39.25Z" fill="#F2F2F2"/>
<path d="M40.5 24.25V25.75H23.25V24.25C23.2512 23.8525 23.4096 23.4717 23.6907 23.1907C23.9717 22.9096 24.3525 22.7512 24.75 22.75H39C39.3975 22.7512 39.7783 22.9096 40.0593 23.1907C40.3404 23.4717 40.4988 23.8525 40.5 24.25Z" fill="#00CE3F"/>
<path d="M33 12.25V7.75L36.75 10L33 12.25Z" fill="#FBFFFD"/>
<path d="M28.5 48.25V52.75L24.75 50.5L28.5 48.25Z" fill="#FBFFFD"/>
<path d="M47.25 19.75C50.5637 19.75 53.25 17.0637 53.25 13.75C53.25 10.4363 50.5637 7.75 47.25 7.75C43.9363 7.75 41.25 10.4363 41.25 13.75C41.25 17.0637 43.9363 19.75 47.25 19.75Z" fill="#00CE3F"/>
<path d="M14.25 52.75C17.5637 52.75 20.25 50.0637 20.25 46.75C20.25 43.4363 17.5637 40.75 14.25 40.75C10.9363 40.75 8.25 43.4363 8.25 46.75C8.25 50.0637 10.9363 52.75 14.25 52.75Z" fill="#00CE3F"/>
<path d="M39 22H24.75C24.1533 22 23.581 22.2371 23.159 22.659C22.7371 23.081 22.5 23.6533 22.5 24.25V37.75C22.5 38.3467 22.7371 38.919 23.159 39.341C23.581 39.7629 24.1533 40 24.75 40H36.75C36.9489 40 37.1396 39.9209 37.2803 39.7803L41.0303 36.0303C41.1709 35.8896 41.25 35.6989 41.25 35.5V24.25C41.25 23.6533 41.0129 23.081 40.591 22.659C40.169 22.2371 39.5967 22 39 22ZM37.5 37.4395V36.25H38.6895L37.5 37.4395ZM39.75 34.75H36.75C36.5511 34.75 36.3603 34.829 36.2197 34.9697C36.079 35.1103 36 35.3011 36 35.5V38.5H24.75C24.5511 38.5 24.3603 38.421 24.2197 38.2803C24.079 38.1397 24 37.9489 24 37.75V26.5H39.75V34.75ZM39.75 25H24V24.25C24 24.0511 24.079 23.8603 24.2197 23.7197C24.3603 23.579 24.5511 23.5 24.75 23.5H39C39.1989 23.5 39.3897 23.579 39.5303 23.7197C39.671 23.8603 39.75 24.0511 39.75 24.25V25Z" fill="black"/>
<path d="M29.25 28.75H30.75V30.25H29.25V28.75Z" fill="black"/>
<path d="M33 28.75H34.5V30.25H33V28.75Z" fill="black"/>
<path d="M36.75 28.75H38.25V30.25H36.75V28.75Z" fill="black"/>
<path d="M29.25 31.75H30.75V33.25H29.25V31.75Z" fill="black"/>
<path d="M25.5 31.75H27V33.25H25.5V31.75Z" fill="black"/>
<path d="M33 31.75H34.5V33.25H33V31.75Z" fill="black"/>
<path d="M29.25 34.75H30.75V36.25H29.25V34.75Z" fill="black"/>
<path d="M25.5 34.75H27V36.25H25.5V34.75Z" fill="black"/>
<path d="M33 34.75H34.5V36.25H33V34.75Z" fill="black"/>
<path d="M36.75 31.75H38.25V33.25H36.75V31.75Z" fill="black"/>
<path d="M47.25 7C45.915 7 44.6099 7.39588 43.4999 8.13758C42.3899 8.87928 41.5247 9.93349 41.0138 11.1669C40.5029 12.4003 40.3693 13.7575 40.6297 15.0669C40.8902 16.3762 41.533 17.579 42.477 18.523C43.421 19.467 44.6238 20.1099 45.9331 20.3703C47.2425 20.6308 48.5997 20.4971 49.8331 19.9862C51.0665 19.4753 52.1207 18.6101 52.8624 17.5001C53.6041 16.3901 54 15.085 54 13.75C53.998 11.9604 53.2862 10.2447 52.0208 8.97922C50.7553 7.71378 49.0396 7.00199 47.25 7ZM47.25 19C46.2117 19 45.1966 18.6921 44.3333 18.1152C43.4699 17.5383 42.797 16.7184 42.3996 15.7591C42.0023 14.7998 41.8983 13.7442 42.1009 12.7258C42.3035 11.7074 42.8035 10.7719 43.5377 10.0377C44.2719 9.30346 45.2074 8.80345 46.2258 8.60088C47.2442 8.39831 48.2998 8.50227 49.2591 8.89963C50.2184 9.29699 51.0383 9.9699 51.6152 10.8333C52.1921 11.6966 52.5 12.7116 52.5 13.75C52.4982 15.1418 51.9445 16.4762 50.9603 17.4603C49.9762 18.4445 48.6418 18.9982 47.25 19Z" fill="black"/>
<path d="M14.25 53.5C15.585 53.5 16.8901 53.1041 18.0001 52.3624C19.1101 51.6207 19.9753 50.5665 20.4862 49.3331C20.9971 48.0997 21.1308 46.7425 20.8703 45.4331C20.6099 44.1238 19.967 42.921 19.023 41.977C18.079 41.033 16.8762 40.3902 15.5669 40.1297C14.2575 39.8693 12.9003 40.0029 11.6669 40.5138C10.4335 41.0247 9.37928 41.8899 8.63758 42.9999C7.89588 44.1099 7.5 45.415 7.5 46.75C7.50199 48.5396 8.21378 50.2553 9.47922 51.5208C10.7447 52.7862 12.4604 53.498 14.25 53.5ZM14.25 41.5C15.2884 41.5 16.3034 41.8079 17.1667 42.3848C18.0301 42.9617 18.703 43.7816 19.1004 44.7409C19.4977 45.7002 19.6017 46.7558 19.3991 47.7742C19.1966 48.7926 18.6965 49.7281 17.9623 50.4623C17.2281 51.1965 16.2926 51.6966 15.2742 51.8991C14.2558 52.1017 13.2002 51.9977 12.2409 51.6004C11.2816 51.203 10.4617 50.5301 9.88478 49.6667C9.30791 48.8034 9 47.7884 9 46.75C9.00179 45.3582 9.55548 44.0238 10.5397 43.0397C11.5238 42.0555 12.8582 41.5018 14.25 41.5Z" fill="black"/>
<path d="M45.9238 14.8105L44.8633 13.75L43.7998 14.8105L45.3906 16.4013C45.5312 16.5419 45.7219 16.6208 45.9208 16.6208C46.1197 16.6208 46.3104 16.5419 46.4511 16.4013L50.6998 12.1593L49.6363 11.0988L45.9238 14.8105Z" fill="black"/>
<path d="M13.6167 50.1434V50.3041V51.05H14.8833V50.3041V50.1436L15.0401 50.1088C15.4931 50.0085 15.8995 49.7292 16.1779 49.3201C16.4566 48.9106 16.586 48.4018 16.5383 47.8925C16.4907 47.3832 16.2699 46.914 15.9228 46.5747C15.5761 46.2359 15.1283 46.0505 14.6667 46.05C14.6666 46.05 14.6665 46.05 14.6665 46.05M13.6167 50.1434L15.0833 45.4C15.0833 45.2807 15.0394 45.1662 14.9613 45.0818C14.8832 44.9974 14.7772 44.95 14.6667 44.95H13.8333C13.7228 44.95 13.6168 44.9974 13.5387 45.0818C13.4606 45.1662 13.4167 45.2807 13.4167 45.4C13.4167 45.5193 13.4606 45.6338 13.5387 45.7182C13.6168 45.8026 13.7228 45.85 13.8333 45.85H14.6667L14.6665 46.05M13.6167 50.1434L13.4597 50.1088C13.038 50.0158 12.6557 49.7677 12.3792 49.4021C12.1416 49.0878 11.9955 48.704 11.959 48.3M13.6167 50.1434L11.959 48.3M14.6665 46.05L13.8333 46.05C13.6646 46.05 13.5062 45.9775 13.392 45.8541C13.2782 45.7312 13.2167 45.5676 13.2167 45.4C13.2167 45.2324 13.2782 45.0688 13.392 44.9459C13.5062 44.8225 13.6646 44.75 13.8333 44.75H14.6667C14.8354 44.75 14.9938 44.8225 15.108 44.9459C15.1756 45.0188 15.2247 45.1061 15.2534 45.2M14.6665 46.05L15.2534 45.2M15.2534 45.2H16.541M15.2534 45.2H16.541M16.541 45.2C16.5045 44.796 16.3584 44.4122 16.1208 44.0979C15.8443 43.7323 15.462 43.4842 15.0403 43.3912L14.8833 43.3566V43.1959V42.45H13.6167V43.1959V43.3564L13.4599 43.3912C13.0069 43.4915 12.6005 43.7708 12.3221 44.1799C12.0434 44.5894 11.914 45.0982 11.9617 45.6075C12.0093 46.1168 12.2301 46.586 12.5772 46.9253C12.924 47.2642 13.3719 47.4495 13.8335 47.45H14.6667C14.8354 47.45 14.9938 47.5225 15.108 47.6459C15.2218 47.7688 15.2833 47.9324 15.2833 48.1C15.2833 48.2676 15.2218 48.4312 15.108 48.5541C14.9938 48.6775 14.8354 48.75 14.6667 48.75H13.8333C13.6646 48.75 13.5062 48.6775 13.392 48.5541C13.3244 48.4812 13.2753 48.3939 13.2466 48.3H11.959" fill="black" stroke="#00CE3F" stroke-width="0.4"/>
<path d="M30.7498 49.75C30.2585 49.75 29.7553 49.723 29.2498 49.6833V48.25C29.2497 48.1173 29.2145 47.9869 29.1476 47.8723C29.0807 47.7576 28.9846 47.6627 28.869 47.5974C28.7535 47.532 28.6227 47.4985 28.4899 47.5002C28.3572 47.502 28.2273 47.5389 28.1135 47.6073L24.3635 49.8573C24.2526 49.924 24.1609 50.0182 24.0972 50.1308C24.0335 50.2434 24 50.3706 24 50.5C24 50.6294 24.0335 50.7566 24.0972 50.8692C24.1609 50.9819 24.2526 51.0761 24.3635 51.1428L28.1135 53.3928C28.2273 53.4611 28.3572 53.4981 28.4899 53.4998C28.6227 53.5016 28.7535 53.468 28.869 53.4027C28.9846 53.3373 29.0807 53.2425 29.1476 53.1278C29.2145 53.0131 29.2497 52.8828 29.2498 52.75V51.1878C29.7553 51.2245 30.2578 51.25 30.7498 51.25C34.109 51.2486 37.4189 50.4415 40.4018 48.8967C43.3847 47.3518 45.9537 45.1141 47.8931 42.3713C49.8326 39.6285 51.086 36.4606 51.5483 33.1333C52.0105 29.806 51.6681 26.4164 50.5498 23.2488L49.1368 23.7513C50.1745 26.6926 50.4918 29.8399 50.0621 32.9291C49.6325 36.0184 48.4684 38.9596 46.6674 41.5061C44.8664 44.0527 42.4811 46.1302 39.7115 47.5646C36.9419 48.999 33.8688 49.7485 30.7498 49.75ZM27.7498 51.4248L26.207 50.5L27.7498 49.5753V51.4248Z" fill="black"/>
<path d="M30.7503 10.75C31.2378 10.75 31.7381 10.7755 32.2503 10.813V12.25C32.2503 12.3827 32.2856 12.5131 32.3525 12.6278C32.4194 12.7424 32.5155 12.8373 32.631 12.9026C32.7466 12.968 32.8774 13.0015 33.0101 12.9998C33.1429 12.998 33.2728 12.9611 33.3866 12.8927L37.1366 10.6427C37.2474 10.5761 37.3392 10.4818 37.4029 10.3692C37.4666 10.2566 37.5001 10.1294 37.5001 9.99998C37.5001 9.87059 37.4666 9.7434 37.4029 9.63077C37.3392 9.51814 37.2474 9.42391 37.1366 9.35723L33.3866 7.10723C33.2728 7.03886 33.1429 7.00193 33.0101 7.00019C32.8774 6.99845 32.7466 7.03197 32.631 7.09733C32.5155 7.16269 32.4194 7.25754 32.3525 7.37221C32.2856 7.48687 32.2503 7.61723 32.2503 7.74998V9.30848C31.7411 9.27398 31.2408 9.24998 30.7503 9.24998C27.3911 9.25144 24.0812 10.0585 21.0983 11.6034C18.1153 13.1482 15.5464 15.3859 13.6069 18.1287C11.6675 20.8715 10.414 24.0394 9.9518 27.3667C9.48955 30.694 9.83196 34.0836 10.9503 37.2512L12.3633 36.7487C11.3256 33.8074 11.0083 30.6601 11.4379 27.5709C11.8676 24.4816 13.0317 21.5404 14.8327 18.9939C16.6336 16.4473 19.0189 14.3698 21.7885 12.9354C24.5581 11.501 27.6313 10.7516 30.7503 10.75ZM33.7503 9.07523L35.2931 9.99998L33.7503 10.9247V9.07523Z" fill="black"/>
</svg>
