<svg width="61" height="60" viewBox="0 0 61 60" fill="none" xmlns="http://www.w3.org/2000/svg">
<rect x="0.5" width="60" height="60" rx="8" fill="#D9F3E1"/>
<path d="M30.501 47.9637C40.4221 47.9637 48.4648 39.921 48.4648 29.9999C48.4648 20.0787 40.4221 12.036 30.501 12.036C20.5798 12.036 12.5371 20.0787 12.5371 29.9999C12.5371 39.921 20.5798 47.9637 30.501 47.9637Z" fill="#FBFFFD"/>
<path d="M41.5766 19.3088C39.489 19.3088 37.7968 21.001 37.7968 23.0885C37.7968 23.8637 37.1682 24.4924 36.3929 24.4924C35.0212 24.4924 33.9092 25.6044 33.9092 26.9761V27.5161C33.9092 28.8878 35.0212 29.9999 36.3929 29.9999H48.4655C48.4655 25.9947 47.1542 22.296 44.9382 19.3087C44.9382 19.3088 41.5766 19.3088 41.5766 19.3088Z" fill="#00CE3F"/>
<path d="M33.6538 37.6647H32.7788C32.137 37.6647 31.6168 37.1444 31.6168 36.5027V32.9836C31.6168 31.3358 30.281 30 28.6332 30H25.3146H23.9355C22.8556 30 21.9802 30.8754 21.9802 31.9553C21.9802 32.2253 21.7613 32.4441 21.4913 32.4441H21.4183C19.7617 32.4441 18.4189 33.7871 18.4189 35.4437V35.444C18.419 37.1005 19.7619 38.4432 21.4183 38.4432H22.6369C23.4889 38.4432 24.1797 39.1339 24.1797 39.9859C24.1798 41.3736 25.3047 42.4985 26.6924 42.4985H30.5179C31.9056 42.4985 33.0306 43.6235 33.0306 45.0112V47.7857C34.1154 47.6328 35.1692 47.3836 36.1827 47.046V40.1938C36.1828 38.797 35.0505 37.6647 33.6538 37.6647Z" fill="#00CE3F"/>
<path d="M31.1632 9.87197C31.4004 11.6623 30.7906 13.4611 29.5136 14.7381L26.9995 17.2521L31.0422 25.6732L29.3784 27.337L23.9757 20.2759L19.0756 25.176H19.0635L19.3803 28.6909L17.3701 30.7013L15.8553 25.1799L10.334 23.6653L12.3443 21.6549L15.8592 21.9717V21.9597L20.7593 17.0595L13.6981 11.6568L15.3619 9.99296L23.7831 14.0356L26.2971 11.5216C27.5741 10.2446 29.3729 9.63481 31.1632 9.87197Z" fill="white"/>
<path d="M49.2755 11.2259C46.1553 8.10564 40.3438 8.31417 33.7081 11.5479C33.5683 11.5764 33.4395 11.6411 33.3333 11.7334C32.8052 11.9986 32.2722 12.2827 31.7351 12.5855C32.0144 11.6815 32.1029 10.7176 31.9765 9.76407C31.9278 9.39649 31.6386 9.10733 31.2711 9.0586C29.2414 8.7897 27.1651 9.49353 25.7173 10.9414L23.6142 13.0445L15.7172 9.25334C15.403 9.10265 15.0284 9.16655 14.7822 9.41281L13.1183 11.0766C12.9511 11.2437 12.8642 11.4749 12.8798 11.7108C12.8954 11.9467 13.0121 12.1644 13.1999 12.3081L19.5171 17.1416L15.5398 21.1191L12.4182 20.8378C12.1764 20.8159 11.9365 20.9028 11.7644 21.0747L9.75419 23.0849C9.54755 23.2915 9.4665 23.5925 9.54124 23.8748C9.61605 24.1573 9.8354 24.3787 10.1172 24.456L12.3707 25.0741C11.9373 26.6732 11.7173 28.3262 11.7173 29.9998C11.7173 31.1069 11.8156 32.215 12.0073 33.2973C10.9958 35.393 10.2732 37.4352 9.86846 39.3648C9.01222 43.4477 9.65493 46.7013 11.7274 48.7738C13.1888 50.2352 15.2979 50.9985 17.8556 50.9985C18.0644 50.9985 18.2767 50.9934 18.4914 50.9831C21.0657 50.8606 24.0714 49.999 27.1966 48.4925C28.2723 48.6842 29.3771 48.7841 30.5014 48.7841C34.3572 48.7841 38.0625 47.6244 41.2164 45.4302C41.5883 45.1715 41.6801 44.6603 41.4214 44.2884C41.1626 43.9165 40.6513 43.8248 40.2796 44.0835C38.3299 45.4398 36.1491 46.3622 33.8509 46.8165V45.0113C33.8509 43.1734 32.3557 41.6782 30.5179 41.6782H26.6923C25.7592 41.6782 24.9999 40.9191 24.9999 39.9858C24.9997 38.6829 23.9397 37.6229 22.6368 37.6229H21.4182C20.2168 37.6229 19.2392 36.6454 19.2391 35.4435C19.2391 34.8614 19.4658 34.3142 19.8773 33.9026C20.2889 33.491 20.8361 33.2642 21.4182 33.2642H21.4912C22.2132 33.2642 22.8004 32.677 22.8004 31.9552C22.8004 31.3293 23.3095 30.8202 23.9353 30.8202H28.633C29.8259 30.8202 30.7964 31.7907 30.7964 32.9836V36.5027C30.7964 37.5956 31.6856 38.4849 32.7788 38.4849H33.6538C34.596 38.4849 35.3626 39.2514 35.3626 40.1938V42.1801C35.3626 42.6332 35.7299 43.0003 36.1828 43.0003C36.6358 43.0003 37.0031 42.6331 37.0031 42.1801V40.1938C37.0031 38.347 35.5006 36.8444 33.6537 36.8444H32.7787C32.5902 36.8444 32.4369 36.6911 32.4369 36.5027V32.9835C32.4369 30.886 30.7304 29.1796 28.633 29.1796H23.9353C22.5146 29.1796 21.3397 30.2528 21.1787 31.631C20.2485 31.6882 19.382 32.0778 18.7173 32.7425C17.9959 33.464 17.5986 34.4232 17.5987 35.4439C17.5988 37.5499 19.3123 39.2633 21.4182 39.2633H22.6368C23.0351 39.2633 23.3594 39.5874 23.3594 39.9858C23.3595 41.8235 24.8547 43.3187 26.6924 43.3187H30.5179C31.4512 43.3187 32.2105 44.078 32.2105 45.0112V47.0304C32.2105 47.04 32.2116 47.0493 32.212 47.0589C31.6465 47.1148 31.076 47.1435 30.5015 47.1435C22.3816 47.1435 15.3827 41.445 13.7246 33.5427C14.4141 32.1683 15.2299 30.7704 16.1572 29.38L16.5792 30.9181C16.6565 31.1999 16.8779 31.4193 17.1603 31.4941C17.2298 31.5124 17.3002 31.5214 17.3702 31.5214C17.585 31.5214 17.7945 31.437 17.9503 31.2811L19.9607 29.2709C20.1327 29.0988 20.2194 28.8594 20.1977 28.6171L19.9163 25.4956L23.8937 21.5182L28.7272 27.8355C28.8709 28.0232 29.0885 28.1399 29.3245 28.1555C29.5595 28.1708 29.7915 28.0842 29.9587 27.917L31.6226 26.2532C31.8688 26.0069 31.9327 25.632 31.782 25.3182L27.9909 17.421L29.4988 15.9131C31.0358 14.863 32.5575 13.9642 34.0359 13.2214C37.6723 13.9826 40.8426 15.8756 43.2065 18.4885H41.5766C39.0402 18.4885 36.9766 20.5521 36.9766 23.0885C36.9766 23.4103 36.7148 23.6721 36.3929 23.6721C34.571 23.6721 33.0889 25.1544 33.0889 26.9762V27.5162C33.0889 29.338 34.571 30.8203 36.3929 30.8203H42.8092C43.2622 30.8203 43.6295 30.453 43.6295 30C43.6295 29.5471 43.2621 29.1798 42.8092 29.1798H36.3929C35.4757 29.1798 34.7294 28.4336 34.7294 27.5163V26.9763C34.7294 26.059 35.4757 25.3128 36.3929 25.3128C37.6193 25.3128 38.617 24.315 38.617 23.0886C38.617 21.4567 39.9446 20.1291 41.5765 20.1291H43.9523C44.1242 20.1291 44.2837 20.076 44.4155 19.9856C46.4574 22.8237 47.6451 26.2957 47.6451 30C47.6451 32.8366 46.9382 35.6464 45.6008 38.1261C45.3858 38.5248 45.5346 39.0223 45.9335 39.2373C46.0574 39.3041 46.1907 39.3358 46.3222 39.3358C46.614 39.3358 46.8966 39.1797 47.0449 38.9048C48.5109 36.1867 49.2857 33.1075 49.2857 30C49.2857 28.876 49.1858 27.7713 48.994 26.6957C50.5018 23.568 51.3635 20.5598 51.4851 17.984C51.6192 15.1423 50.8551 12.8054 49.2755 11.2259ZM24.6207 47.8407C19.4432 49.9263 15.145 49.8714 12.8876 47.6138C10.7881 45.5144 10.9602 42.1523 11.4742 39.7016C11.7278 38.493 12.128 37.2135 12.6597 35.8934C14.5366 41.5951 19.0322 45.9979 24.6207 47.8407ZM13.3742 30.7336C13.3639 30.4892 13.358 30.2444 13.358 29.9997C13.358 28.4731 13.5583 26.9657 13.9529 25.5081L15.1881 25.847L15.5901 27.3123C14.7753 28.4554 14.0354 29.5987 13.3742 30.7336ZM26.2603 17.6069L30.0513 25.5041L29.4608 26.0946L24.6274 19.7773C24.4837 19.5895 24.2661 19.4729 24.0302 19.4573C23.7947 19.4417 23.5632 19.5285 23.3959 19.6958L18.5734 24.5183C18.5321 24.5491 18.4935 24.5838 18.4583 24.6225C18.3028 24.7925 18.2261 25.0201 18.2468 25.2495L18.5291 28.3821L17.7879 29.1233L16.6467 24.9625C16.5701 24.6833 16.3519 24.4651 16.0726 24.3884L11.9119 23.2472L12.6531 22.506L15.7857 22.7883C16.0159 22.8092 16.2427 22.7321 16.4127 22.5768C16.4513 22.5416 16.4861 22.5031 16.5168 22.4619L21.3395 17.6392C21.5067 17.472 21.5937 17.2408 21.578 17.0049C21.5624 16.769 21.4457 16.5513 21.2579 16.4076L14.9407 11.5742L15.5312 10.9836L23.4284 14.7747C23.7425 14.9254 24.1172 14.8615 24.3634 14.6152L26.8774 12.1012C27.8091 11.1694 29.0867 10.6472 30.3926 10.6424C30.3877 11.9482 29.8655 13.2259 28.9337 14.1577L28.3832 14.7082C28.3831 14.7083 28.3829 14.7085 28.3828 14.7087L26.4197 16.6718C26.1735 16.9182 26.1095 17.293 26.2603 17.6069ZM48.3419 24.1199C46.498 18.53 42.0918 14.0318 36.3877 12.156C41.4852 10.1062 45.829 10.0993 48.1154 12.386C50.3728 14.6432 50.4277 18.9422 48.3419 24.1199Z" fill="black"/>
<path d="M44.509 41.2855C44.1668 40.9794 43.6552 41.0109 43.3439 41.3572C43.3425 41.3587 43.3411 41.3603 43.3397 41.3619C43.0311 41.7107 43.0582 42.2226 43.4015 42.5275C43.5588 42.6672 43.7513 42.7359 43.9436 42.7359C44.1712 42.7359 44.3985 42.6398 44.5664 42.4514C44.8762 42.1038 44.8511 41.5917 44.509 41.2855Z" fill="black"/>
</svg>
