<svg width="61" height="60" viewBox="0 0 61 60" fill="none" xmlns="http://www.w3.org/2000/svg">
<rect x="0.5" width="60" height="60" rx="8" fill="#D9F3E1"/>
<path d="M42.916 39.5423C42.916 42.8732 41.1238 45.8648 38.2775 47.9161V53.0625H33.8108V50.0813C32.3346 50.5168 30.74 50.7546 29.0774 50.7546C27.4147 50.7546 25.8201 50.5168 24.3439 50.0813V53.0625H19.8773V47.9161C18.3877 46.8429 17.1874 45.5119 16.38 44.0089H13.5205V35.0758H16.38C17.1494 33.6408 18.2783 32.3623 19.6752 31.3149L20.2693 25.0371L25.0117 28.8214C26.2969 28.502 27.6627 28.3301 29.0775 28.3301C36.7208 28.3301 42.916 33.3506 42.916 39.5423Z" fill="#FBFFFD"/>
<path d="M29.1453 24.4586C33.9837 24.4586 37.9059 20.5364 37.9059 15.6981C37.9059 10.8597 33.9837 6.9375 29.1453 6.9375C24.307 6.9375 20.3848 10.8597 20.3848 15.6981C20.3848 20.5364 24.307 24.4586 29.1453 24.4586Z" fill="#00CE3F"/>
<path d="M28.0333 20.6337V20.4741L27.8777 20.4387C27.2693 20.3003 26.7176 19.9309 26.3189 19.3869C25.9577 18.8939 25.7433 18.2864 25.7059 17.65H27.6553C27.6878 17.7959 27.7557 17.9322 27.8553 18.0432C28.0002 18.2046 28.2015 18.3 28.4167 18.3H29.5833C29.7985 18.3 29.9998 18.2046 30.1447 18.0432C30.2888 17.8825 30.3667 17.6689 30.3667 17.45C30.3667 17.2311 30.2888 17.0175 30.1447 16.8568C29.9998 16.6954 29.7985 16.6 29.5833 16.6H28.4169C27.7509 16.5993 27.1047 16.3234 26.6044 15.819C26.1036 15.3139 25.7854 14.6159 25.7167 13.8586C25.6481 13.1013 25.8344 12.3445 26.2363 11.7352C26.638 11.1264 27.2243 10.7107 27.8779 10.5613L28.0333 10.5257V10.3663V9.2H29.9667V10.3663V10.5259L30.1223 10.5613C30.7307 10.6997 31.2824 11.0691 31.6811 11.6131C32.0423 12.1061 32.2567 12.7136 32.2941 13.35H30.3447C30.3122 13.2041 30.2443 13.0678 30.1447 12.9568C29.9998 12.7954 29.7985 12.7 29.5833 12.7H28.4167C28.2015 12.7 28.0002 12.7954 27.8553 12.9568C27.7112 13.1175 27.6333 13.3311 27.6333 13.55C27.6333 13.7689 27.7112 13.9825 27.8553 14.1432C28.0002 14.3046 28.2015 14.4 28.4167 14.4H29.5831C30.2491 14.4007 30.8953 14.6766 31.3956 15.181C31.8964 15.6861 32.2146 16.3841 32.2833 17.1414C32.3519 17.8987 32.1656 18.6555 31.7637 19.2648C31.362 19.8736 30.7757 20.2893 30.1221 20.4387L29.9667 20.4743V20.6337V21.8H28.0333V20.6337Z" fill="black" stroke="#00CE3F" stroke-width="0.4"/>
<path d="M21.3203 36.1978C21.8381 36.1978 22.2578 35.778 22.2578 35.2603C22.2578 34.7425 21.8381 34.3228 21.3203 34.3228C20.8025 34.3228 20.3828 34.7425 20.3828 35.2603C20.3828 35.778 20.8025 36.1978 21.3203 36.1978Z" fill="black"/>
<path d="M32.2906 32.2112C31.2791 31.9826 30.2406 31.8644 29.2038 31.8601C28.1267 31.8538 27.049 31.9738 25.9986 32.2112C25.4936 32.3254 25.1767 32.8272 25.2909 33.3323C25.405 33.8373 25.9066 34.1543 26.4119 34.0401C27.3244 33.8338 28.2608 33.7323 29.196 33.7351C30.0965 33.7388 30.9986 33.8415 31.8772 34.0401C31.9467 34.0558 32.0162 34.0633 32.0847 34.0633C32.5132 34.0633 32.8999 33.7678 32.9983 33.3323C33.1125 32.8273 32.7956 32.3254 32.2906 32.2112Z" fill="#00CE3F"/>
<path d="M47.6494 33.2382C47.3744 32.7995 46.7957 32.6671 46.3571 32.9423C45.9185 33.2176 45.786 33.7961 46.0612 34.2347C46.097 34.2917 46.9316 35.6487 46.3191 36.9962C45.888 37.9448 44.9147 38.5621 43.814 38.6436C43.5555 35.7013 42.0302 32.974 39.4533 30.8859C36.6731 28.6333 32.9882 27.3926 29.0775 27.3926C27.7751 27.3926 26.4869 27.5312 25.241 27.805L20.8541 24.3043C20.585 24.0896 20.2199 24.0397 19.903 24.1741C19.5861 24.3087 19.3684 24.606 19.336 24.9487L18.7803 30.822C17.5684 31.7873 16.5807 32.8997 15.8351 34.1383H13.5205C13.0027 34.1383 12.583 34.5581 12.583 35.0758V44.0089C12.583 44.5266 13.0027 44.9464 13.5205 44.9464H15.836C16.6119 46.2284 17.6718 47.4031 18.9397 48.3857V53.0626C18.9397 53.5802 19.3594 54.0001 19.8772 54.0001H24.3439C24.8616 54.0001 25.2814 53.5802 25.2814 53.0626V51.2882C26.514 51.5566 27.7859 51.6922 29.0774 51.6922C30.3688 51.6922 31.6408 51.5567 32.8734 51.2882V53.0626C32.8734 53.5802 33.2932 54.0001 33.8109 54.0001H38.2775C38.7952 54.0001 39.215 53.5802 39.215 53.0626V48.3858C41.8804 46.3219 43.5115 43.5163 43.805 40.5216C45.636 40.4358 47.2891 39.3934 48.026 37.772C49.0339 35.555 47.7941 33.4687 47.6494 33.2382ZM37.7294 47.1557C37.485 47.3318 37.34 47.6147 37.34 47.9162V52.1251H34.7485V50.0813C34.7485 49.7857 34.6091 49.5075 34.3723 49.3305C34.1356 49.1534 33.8292 49.0985 33.5458 49.1821C32.1173 49.6035 30.614 49.8171 29.0775 49.8171C27.5409 49.8171 26.0376 49.6035 24.6093 49.1821C24.3258 49.0986 24.0194 49.1534 23.7827 49.3305C23.5459 49.5075 23.4065 49.7856 23.4065 50.0813V52.1251H20.8149V47.9162C20.8149 47.6147 20.67 47.3317 20.4254 47.1555C19.0477 46.163 17.9344 44.9216 17.206 43.5654C17.0426 43.2613 16.7254 43.0714 16.3802 43.0714H14.458V36.0133H16.38C16.7254 36.0133 17.043 35.8233 17.2062 35.5188C17.9088 34.2084 18.9287 33.0465 20.2376 32.0651C20.4489 31.9067 20.5836 31.6663 20.6086 31.4033L21.0394 26.8509L24.427 29.5542C24.655 29.7361 24.9548 29.8019 25.2378 29.7313C26.4762 29.4236 27.768 29.2676 29.0774 29.2676C36.191 29.2676 41.9785 33.8768 41.9785 39.5424C41.9785 42.4347 40.4298 45.2095 37.7294 47.1557Z" fill="black"/>
<path d="M29.1453 25.3961C34.4928 25.3961 38.8433 21.0456 38.8433 15.6981C38.8433 12.0961 36.8644 8.8104 33.679 7.12309C33.2215 6.88093 32.654 7.05503 32.4117 7.51271C32.1693 7.97021 32.3437 8.53768 32.8013 8.77993C35.3716 10.1415 36.9682 12.7922 36.9682 15.698C36.9682 20.0116 33.4588 23.521 29.1452 23.521C24.8316 23.521 21.3223 20.0116 21.3223 15.698C21.3223 12.7929 22.9185 10.1422 25.488 8.78059C25.9455 8.53815 26.1197 7.97068 25.8773 7.51318C25.6348 7.05568 25.0674 6.88131 24.61 7.12384C21.4255 8.81143 19.4473 12.0969 19.4473 15.698C19.4474 21.0455 23.7978 25.3961 29.1453 25.3961Z" fill="black"/>
<path d="M29.1455 7.875C29.6633 7.875 30.083 7.45527 30.083 6.9375C30.083 6.41973 29.6633 6 29.1455 6C28.6277 6 28.208 6.41973 28.208 6.9375C28.208 7.45527 28.6277 7.875 29.1455 7.875Z" fill="black"/>
</svg>
