<svg width="61" height="60" viewBox="0 0 61 60" fill="none" xmlns="http://www.w3.org/2000/svg">
<rect x="0.5" width="60" height="60" rx="8" fill="#D9F3E1"/>
<g clip-path="url(#clip0_329_592)">
<path d="M30.2825 12.5625C28.8359 9.25125 25.5322 6.9375 21.6875 6.9375C16.5097 6.9375 12.3125 11.1347 12.3125 16.3125C12.3125 21.4903 16.5097 25.6875 21.6875 25.6875C24.7541 25.6875 27.4775 24.2147 29.1875 21.9375L31.0625 16.3125C31.0625 14.9794 30.7841 13.7109 30.2825 12.5625Z" fill="#00CE3F"/>
<path d="M31.0625 16.3125C31.0625 14.9794 30.7841 13.7109 30.2825 12.5625H40.4375L53.5625 25.6875V38.8125L42.3125 27.5625H37.955C33.3734 27.5625 31.2153 24.9788 29.1875 21.9375C29.6375 21.3394 30.0172 20.685 30.3144 19.9875C28.6016 19.6406 27.3125 18.1275 27.3125 16.3125H31.0625Z" fill="#FBFFFD"/>
<path d="M36.4784 42.9094C35.0131 41.4459 32.6403 41.4459 31.1759 42.9103L26.6488 47.4375H23C20.9291 47.4375 19.25 45.7584 19.25 43.6875H23C25.0709 43.6875 26.75 42.0084 26.75 39.9375H19.25C16.8003 39.9375 14.7172 41.5022 13.9447 43.6875H7.4375V53.0625H33.5028L41.7584 42.9328C40.3006 41.4759 37.9447 41.4684 36.4784 42.9094Z" fill="#FBFFFD"/>
<path d="M41.1004 11.8996C40.9245 11.7238 40.6861 11.625 40.4375 11.625H30.8738C29.1196 8.18878 25.5801 6 21.6875 6C16.0012 6 11.375 10.6262 11.375 16.3125C11.375 21.9988 16.0012 26.625 21.6875 26.625C24.5316 26.625 27.1735 25.4902 29.1083 23.4749C31.0197 26.1443 33.4312 28.5 37.955 28.5H41.9242L52.8996 39.4754C53.1678 39.7436 53.5709 39.8236 53.9213 39.6787C54.2715 39.5335 54.5 39.1917 54.5 38.8125V25.6875C54.5 25.4389 54.4012 25.2005 54.2254 25.0246L41.1004 11.8996ZM21.6875 24.75C17.0351 24.75 13.25 20.9649 13.25 16.3125C13.25 11.6601 17.0351 7.875 21.6875 7.875C25.0433 7.875 28.0798 9.86222 29.4234 12.9378C29.7638 13.7171 29.9809 14.5337 30.0733 15.375H27.3125C26.7948 15.375 26.375 15.7948 26.375 16.3125C26.375 18.1283 27.4299 19.75 29.0012 20.5223C27.4993 23.1252 24.7609 24.75 21.6875 24.75ZM52.625 36.5491L44.5156 28.4397C44.8713 28.3066 45.125 27.9646 45.125 27.5624C45.125 27.0447 44.7052 26.6249 44.1875 26.6249H37.955C34.0409 26.6249 32.1157 24.5527 30.3252 21.9463C30.5258 21.6394 30.7097 21.3217 30.8763 20.9952C30.9383 20.9977 31.0003 20.9999 31.0625 20.9999H32.6313C33.7078 23.2679 36.0133 24.7499 38.5625 24.7499C39.0802 24.7499 39.5 24.3301 39.5 23.8124C39.5 23.2947 39.0802 22.8749 38.5625 22.8749C36.579 22.8749 34.8022 21.619 34.1411 19.7498C34.0086 19.3753 33.6545 19.1249 33.2572 19.1249H31.0625C29.8553 19.1249 28.8064 18.3601 28.4117 17.2499H38.5625C39.0802 17.2499 39.5 16.8301 39.5 16.3124C39.5 15.7947 39.0802 15.3749 38.5625 15.3749H31.9574C31.9003 14.7378 31.7849 14.1116 31.6116 13.4999H40.0492L52.625 26.0759V36.5491Z" fill="black"/>
<path d="M21.7035 15.3356C21.1866 15.3356 20.766 14.9151 20.766 14.3981C20.766 13.8853 21.1828 13.4648 21.6941 13.4606C21.6964 13.4606 21.6987 13.4605 21.701 13.4605C22.0348 13.4605 22.3862 13.6299 22.7175 13.9506C23.0895 14.3108 23.6832 14.3011 24.0431 13.9289C24.4032 13.5568 24.3935 12.9634 24.0215 12.6033C23.5405 12.1378 23.0587 11.8761 22.6251 11.7349V10.6875C22.6251 10.1698 22.2052 9.75 21.6876 9.75C21.1699 9.75 20.7501 10.1698 20.7501 10.6875V11.7533C19.6681 12.1461 18.891 13.1859 18.891 14.3981C18.891 15.9489 20.1527 17.2106 21.7035 17.2106C22.2204 17.2106 22.641 17.6312 22.641 18.1481C22.641 18.6687 22.2188 19.0857 21.7048 19.0857C21.702 19.0857 21.6991 19.0857 21.6962 19.0856C21.2904 19.082 20.8723 18.8371 20.4871 18.3774C20.1544 17.9805 19.5633 17.9286 19.1663 18.2613C18.7696 18.5939 18.7175 19.1851 19.0501 19.5819C19.5457 20.1732 20.1299 20.5872 20.7501 20.7987V21.9375C20.7501 22.4552 21.17 22.875 21.6876 22.875C22.2053 22.875 22.6251 22.4552 22.6251 21.9375V20.8068C23.7047 20.4335 24.5161 19.4013 24.5161 18.1481C24.516 16.5973 23.2543 15.3356 21.7035 15.3356Z" fill="black"/>
<path d="M20.2876 34.1655L20.1169 33.9948L19.8423 33.7202C19.5151 33.3933 18.985 33.3932 18.6578 33.7202C18.3307 34.0473 18.3307 34.5776 18.6578 34.9047C18.6578 34.9047 18.6578 34.9047 18.6578 34.9047L20.5327 36.7797C20.6965 36.9432 20.9105 37.025 21.1251 37.025C21.3396 37.025 21.5537 36.9432 21.7173 36.7797L23.5923 34.9047C23.9193 34.5777 23.9193 34.0474 23.5923 33.7202C23.5923 33.7202 23.5923 33.7202 23.5923 33.7202M20.2876 34.1655L22.3371 33.6495C22.7033 33.2835 23.2968 33.2835 23.663 33.6495L23.5923 33.7202M20.2876 34.1655V33.9241V30C20.2876 29.5375 20.6626 29.1625 21.1251 29.1625C21.5875 29.1625 21.9626 29.5375 21.9626 30V33.9241V34.1656L22.1333 33.9948L22.4077 33.7202M20.2876 34.1655L22.4077 33.7202M23.5923 33.7202C23.2651 33.3933 22.735 33.3933 22.4078 33.7202C22.4078 33.7202 22.4078 33.7202 22.4078 33.7202C22.4078 33.7202 22.4078 33.7202 22.4077 33.7202M23.5923 33.7202L22.4077 33.7202" fill="#00CE3F" stroke="#D9F3E1" stroke-width="0.2"/>
<path d="M20.1875 54C20.7053 54 21.125 53.5803 21.125 53.0625C21.125 52.5447 20.7053 52.125 20.1875 52.125C19.6697 52.125 19.25 52.5447 19.25 53.0625C19.25 53.5803 19.6697 54 20.1875 54Z" fill="black"/>
<path d="M13.3201 42.75H7.4375C6.91981 42.75 6.5 43.1698 6.5 43.6875V53.0625C6.5 53.5802 6.91981 54 7.4375 54H15.9688C16.4864 54 16.9062 53.5802 16.9062 53.0625C16.9062 52.5448 16.4864 52.125 15.9688 52.125H8.375V44.6241H12.7553C12.711 44.9341 12.6875 45.2469 12.6875 45.5625C12.6875 46.0802 13.1073 46.5 13.625 46.5C14.1427 46.5 14.5625 46.0802 14.5625 45.5625C14.5625 45.0258 14.652 44.4999 14.8286 44C15.4894 42.1309 17.2662 40.875 19.25 40.8741H25.6518C25.2649 41.9663 24.2222 42.75 23 42.75H19.25C18.7323 42.75 18.3125 43.1698 18.3125 43.6875C18.3125 46.2722 20.4153 48.375 23 48.3741H31.9321C31.9385 48.3751 31.9449 48.3759 31.9513 48.3759C32.1913 48.3759 32.4312 48.2843 32.6143 48.1013L37.1424 43.5732C37.1461 43.5696 37.1492 43.5653 37.1529 43.5616C38.0421 42.7024 39.3689 42.5481 40.416 43.096L33.0574 52.125H24.4062C23.8886 52.125 23.4688 52.5448 23.4688 53.0625C23.4688 53.5802 23.8886 54 24.4062 54H33.5028C33.7846 54 34.0515 53.8732 34.2296 53.6547L42.4852 43.525C42.789 43.1521 42.7614 42.6097 42.4211 42.2696C40.8145 40.6637 38.3053 40.4726 36.4837 41.7008C34.6584 40.4447 32.1343 40.6259 30.5129 42.2472L26.2603 46.5H23C21.7778 46.5 20.7351 45.7163 20.3482 44.625H23C25.5847 44.625 27.6875 42.5222 27.6875 39.9375C27.6875 39.4198 27.2677 39 26.75 39H19.25C16.7008 39 14.3967 40.4823 13.3201 42.75ZM31.8388 43.5732C32.7022 42.7096 33.9929 42.5264 35.0384 43.0237L31.5619 46.5H28.9121L31.8388 43.5732Z" fill="black"/>
</g>
<defs>
<clipPath id="clip0_329_592">
<rect width="48" height="48" fill="white" transform="translate(6.5 6)"/>
</clipPath>
</defs>
</svg>
