<svg width="61" height="60" viewBox="0 0 61 60" fill="none" xmlns="http://www.w3.org/2000/svg">
<rect x="0.5" width="60" height="60" rx="8" fill="#D9F3E1"/>
<rect x="19.0088" y="10.15" width="23.65" height="38.7" fill="#FCFFFE"/>
<rect x="25.459" y="10.15" width="10.75" height="4.3" fill="#00CE3F"/>
<path d="M23.2188 29.4999C22.477 29.4999 21.875 28.8979 21.875 28.1562V25.4687C21.875 23.7397 23.2815 22.3333 25.0104 22.3333H27.6979C28.4397 22.3333 29.0417 22.9353 29.0417 23.677C29.0417 24.4188 28.4397 25.0208 27.6979 25.0208H25.0104C24.7632 25.0208 24.5625 25.2214 24.5625 25.4687V28.1562C24.5625 28.8979 23.9605 29.4999 23.2188 29.4999Z" fill="#00CE3F"/>
<path d="M38.4479 29.4999C37.7062 29.4999 37.1042 28.8979 37.1042 28.1562V25.4687C37.1042 25.2214 36.9035 25.0208 36.6562 25.0208H33.9687C33.227 25.0208 32.625 24.4188 32.625 23.677C32.625 22.9353 33.227 22.3333 33.9687 22.3333H36.6562C38.3852 22.3333 39.7917 23.7397 39.7917 25.4687V28.1562C39.7917 28.8979 39.1897 29.4999 38.4479 29.4999Z" fill="#00CE3F"/>
<path d="M27.6979 40.2499H25.0104C23.2815 40.2499 21.875 38.8435 21.875 37.1145V34.427C21.875 33.6853 22.477 33.0833 23.2188 33.0833C23.9605 33.0833 24.5625 33.6853 24.5625 34.427V37.1145C24.5625 37.3617 24.7632 37.5624 25.0104 37.5624H27.6979C28.4397 37.5624 29.0417 38.1644 29.0417 38.9062C29.0417 39.6479 28.4397 40.2499 27.6979 40.2499Z" fill="#00CE3F"/>
<path d="M36.6562 40.2499H33.9687C33.227 40.2499 32.625 39.6479 32.625 38.9062C32.625 38.1644 33.227 37.5624 33.9687 37.5624H36.6562C36.9035 37.5624 37.1042 37.3617 37.1042 37.1145V34.427C37.1042 33.6853 37.7062 33.0833 38.4479 33.0833C39.1897 33.0833 39.7917 33.6853 39.7917 34.427V37.1145C39.7917 38.8435 38.3852 40.2499 36.6562 40.2499Z" fill="#00CE3F"/>
<path d="M34.8652 15.1667H26.8027C25.0738 15.1667 23.6673 13.7602 23.6673 12.0312C23.6673 11.2913 23.0635 10.6875 22.3236 10.6875H21.4277C20.686 10.6875 20.084 10.0855 20.084 9.34375C20.084 8.602 20.686 8 21.4277 8H22.3236C24.5452 8 26.3548 9.80958 26.3548 12.0312C26.3548 12.2785 26.5555 12.4792 26.8027 12.4792H34.8652C35.1125 12.4792 35.3132 12.2785 35.3132 12.0312C35.3132 9.80958 37.1227 8 39.3444 8H40.2402C40.982 8 41.584 8.602 41.584 9.34375C41.584 10.0855 40.982 10.6875 40.2402 10.6875H39.3444C38.6044 10.6875 38.0007 11.2913 38.0007 12.0312C38.0007 13.7602 36.5942 15.1667 34.8652 15.1667Z" fill="black"/>
<path d="M40.2396 50.9H21.4271C18.7644 50.9 16.6 48.7356 16.6 46.0729V12.9271C16.6 10.2644 18.7644 8.1 21.4271 8.1H40.2396C42.9023 8.1 45.0667 10.2644 45.0667 12.9271V46.0729C45.0667 48.7356 42.9023 50.9 40.2396 50.9ZM21.4271 10.5875C20.1374 10.5875 19.0875 11.6374 19.0875 12.9271V46.0729C19.0875 47.3626 20.1374 48.4125 21.4271 48.4125H40.2396C41.5293 48.4125 42.5792 47.3626 42.5792 46.0729V12.9271C42.5792 11.6374 41.5293 10.5875 40.2396 10.5875H21.4271Z" fill="black" stroke="#D9F3E1" stroke-width="0.2"/>
</svg>
